<svg viewBox="0 0 109 108" fill="none" xmlns="http://www.w3.org/2000/svg">
<path d="M4.68 65.468C5.16 65.468 5.58 65.636 5.94 65.972C6.324 66.284 6.516 66.788 6.516 67.484C6.516 68.156 6.324 68.66 5.94 68.996C5.58 69.332 5.16 69.5 4.68 69.5C4.152 69.5 3.708 69.332 3.348 68.996C2.988 68.66 2.808 68.156 2.808 67.484C2.808 66.788 2.988 66.284 3.348 65.972C3.708 65.636 4.152 65.468 4.68 65.468ZM6.228 72.704V92H3.06V72.704H6.228ZM33.5093 72.344C35.6933 72.344 37.3253 72.908 38.4053 74.036C39.4853 75.14 40.0253 76.94 40.0253 79.436V92H36.8933V79.58C36.8933 76.532 35.5853 75.008 32.9693 75.008C31.0973 75.008 29.7533 75.548 28.9373 76.628C28.1453 77.708 27.7493 79.28 27.7493 81.344V92H24.6173V79.58C24.6173 76.532 23.2973 75.008 20.6573 75.008C18.7133 75.008 17.3693 75.608 16.6253 76.808C15.8813 78.008 15.5093 79.736 15.5093 81.992V92H12.3413V72.704H14.8973L15.3653 75.332H15.5453C16.1453 74.324 16.9493 73.58 17.9573 73.1C18.9893 72.596 20.0813 72.344 21.2333 72.344C24.2573 72.344 26.2253 73.424 27.1373 75.584H27.3173C27.9653 74.48 28.8412 73.664 29.9453 73.136C31.0733 72.608 32.2613 72.344 33.5093 72.344Z" fill="#333333"/>
<path d="M67.1538 72.344C69.3378 72.344 70.9698 72.908 72.0498 74.036C73.1298 75.14 73.6698 76.94 73.6698 79.436V92H70.5378V79.58C70.5378 76.532 69.2298 75.008 66.6138 75.008C64.7418 75.008 63.3978 75.548 62.5818 76.628C61.7898 77.708 61.3938 79.28 61.3938 81.344V92H58.2618V79.58C58.2618 76.532 56.9418 75.008 54.3018 75.008C52.3578 75.008 51.0138 75.608 50.2698 76.808C49.5258 78.008 49.1538 79.736 49.1538 81.992V92H45.9858V72.704H48.5418L49.0098 75.332H49.1898C49.7898 74.324 50.5938 73.58 51.6018 73.1C52.6338 72.596 53.7258 72.344 54.8778 72.344C57.9018 72.344 59.8698 73.424 60.7818 75.584H60.9618C61.6098 74.48 62.4858 73.664 63.5898 73.136C64.7178 72.608 65.9058 72.344 67.1538 72.344ZM81.2503 65.468C81.7303 65.468 82.1503 65.636 82.5103 65.972C82.8943 66.284 83.0863 66.788 83.0863 67.484C83.0863 68.156 82.8943 68.66 82.5103 68.996C82.1503 69.332 81.7303 69.5 81.2503 69.5C80.7223 69.5 80.2783 69.332 79.9183 68.996C79.5583 68.66 79.3783 68.156 79.3783 67.484C79.3783 66.788 79.5583 66.284 79.9183 65.972C80.2783 65.636 80.7223 65.468 81.2503 65.468ZM82.7983 72.704V92H79.6303V72.704H82.7983Z" fill="#51B4A9"/>
<path d="M40.2722 61.2942L21.1268 31.4469L50.0752 27.099L40.2722 61.2942Z" fill="#51B4A9"/>
<ellipse rx="15.4677" ry="15.2919" transform="matrix(0.965448 0.260596 -0.248074 0.968741 34.7774 24.2379)" fill="#51B4A9"/>
<path d="M43.6487 67.937L56.2394 21.4321L84.7809 51.1255L43.6487 67.937Z" fill="#333333"/>
<ellipse rx="22.2371" ry="19.1041" transform="matrix(0.390808 0.920472 -0.912764 0.408486 74.6585 31.1985)" fill="#333333"/>
<path d="M39.3049 68.5757L14.526 65.8202L24.6995 47.2884L39.3049 68.5757Z" fill="#333333"/>
<ellipse rx="10.9767" ry="11.086" transform="matrix(0.793387 -0.608718 0.588497 0.808499 16.4778 54.7153)" fill="#333333"/>
</svg>
